{"title":"The Lost Future (2011)(DivX)(release 8-2-2011)(Nl subs) TBS","uid":6160409,"size":938923041,"categoryP":"video","categoryS":"movies","magnet":"?xt=urn:btih:53e2c50999b38debe44ba5473ab4d6ced3a5a908&amp;dn=The+Lost+Future+%282011%29%28DivX%29%28release+8-2-2011%29%28Nl+subs%29+TBS&amp;tr=udp%3A%2F%2Ftracker.openbittorrent.com%3A80&amp;tr=udp%3A%2F%2Fopen.demonii.com%3A1337&amp;tr=udp%3A%2F%2Ftracker.coppersurfer.tk%3A6969&amp;tr=udp%3A%2F%2Fexodus.desync.com%3A6969","seeders":1,"leechers":0,"uploader":"Vlinder.","files":-1,"time":1297193948,"description":"The Lost Future (2011)(DivX)(Nl subs) TBS \n\n*****Vanaf 8 februari op video***** \n\n    \n\n\nVan de makers van &quot;Pillars of the Earth&quot;. \nDuitsland / Zuid-Afrika / Verenigde Staten\nAvontuur / Science-Fiction\n90 minuten\n\ngeregisseerd door Mikael Salomon\nmet Sean Bean, Annabelle Wallis en Sam Claflin\n\n\nEen groep van overlevenden in een post-apocalyptische wereld, waar de oerwouden, bossen, ongerepte moerassen en de beschaving zijn uitgewist, strijdt om te overleven. Ze zijn vastberaden de genetisch gemanipuleerde beesten en mysterieuze ziektes te bestrijden in een poging het menselijke ras weer bovenaan de voedselketen te krijgen.\n\n \nStoryline:\n\n\nA group of post-apocalyptic survivors, struggle to survive in a world where jungles and forests and primeval wetlands and deserts have obliterated \ncivilization. They staunchly face genetically mutating beasts and mysterious diseases in an attempt to re-establish the human race as masters of Earth. \n\n\n\nInfo :\n\nSOURCE..........: RETAIL DVD5\nSIZE............: 895 MB\nFORM............: AVI\nVIDEO CODEC.....: XVID \nAUDIO...........: English\nAUDIO CODE......: AC3\nBITRATE.........: 448kbps\nCHANNELS........: 5\nSUBTITELS.......: NEDERLANDS INGEBAKKEN\nThanks..........: Inge2222\n\nGeneral\n\nFormat                           : DivX\nFormat/Info                      : Hack of AVI\nFile size                        : 895 MiB\nDuration                         : 1h 27mn\nOverall bit rate                 : 1 435 Kbps\n\nVideo\nID                               : 0\nFormat                           : MPEG-4 Visual\nFormat profile                   : Advanced Simple@L5\nFormat settings, BVOP            : Yes\nFormat settings, QPel            : No\nFormat settings, GMC             : No warppoints\nFormat settings, Matrix          : Default (H.263)\nMuxing mode                      : Packed bitstream\nCodec ID                         : DX50\nCodec ID/Hint                    : DivX 5\nDuration                         : 1h 27mn\nBit rate                         : 978 Kbps\nWidth                            : 720 pixels\nHeight                           : 416 pixels\nDisplay aspect ratio             : 16:9\nFrame rate                       : 25.000 fps\nColor space                      : YUV\nChroma subsampling               : 4:2:0\nBit depth                        : 8 bits\nScan type                        : Progressive\nBits/(Pixel*Frame)               : 0.131\nStream size                      : 610 MiB (68%)\nTitle                            : Video \nWriting library                  : XviD 1.2.1 (UTC 2008-12-04)\n\nAudio\nID                               : 1\nFormat                           : AC-3\nFormat/Info                      : Audio Coding 3\nMode extension                   : CM (complete main)\nCodec ID                         : 2000\nDuration                         : 1h 27mn\nBit rate mode                    : Constant\nBit rate                         : 448 Kbps\nChannel(s)                       : 6 channels\nChannel positions                : Front: L C R, Side: L R, LFE\nSampling rate                    : 48.0 KHz\nBit depth                        : 16 bits\nStream size                      : 280 MiB (31%)\nAlignment                        : Split accross interleaves\nInterleave, duration             : 40 ms (1.00 video frame)\nInterleave, preload duration     : 500 ms\nTitle                            : Audio \n\n\n\n  &lt;a href=&quot;\nhttp://www.moviemeter.nl/film/72103&quot; rel=&quot;nofollow&quot; target=&quot;_NEW&quot;&gt;\nhttp://www.moviemeter.nl/film/72103&lt;/a&gt; &lt;a href=&quot;\nhttp://www.imdb.com/title/tt1615091&quot; rel=&quot;nofollow&quot; target=&quot;_NEW&quot;&gt;\nhttp://www.imdb.com/title/tt1615091&lt;/a&gt; ","torrent":{"xt":"urn:btih:53e2c50999b38debe44ba5473ab4d6ced3a5a908","amp;dn":"The+Lost+Future+%282011%29%28DivX%29%28release+8-2-2011%29%28Nl+subs%29+TBS","amp;tr":["udp%3A%2F%2Ftracker.openbittorrent.com%3A80","udp%3A%2F%2Fopen.demonii.com%3A1337","udp%3A%2F%2Ftracker.coppersurfer.tk%3A6969","udp%3A%2F%2Fexodus.desync.com%3A6969"],"infoHash":"53e2c50999b38debe44ba5473ab4d6ced3a5a908","infoHashBuffer":{"type":"Buffer","data":[83,226,197,9,153,179,141,235,228,75,165,71,58,180,214,206,211,165,169,8]},"announce":[],"urlList":[]}}